<svg xmlns="http://www.w3.org/2000/svg" xmlns:xlink="http://www.w3.org/1999/xlink"><symbol id="icon-arrow" viewBox="0 0 9 7"><g fill="none">
<path d="M8.61831 3.53125L5.42634 0.53125L4.68155 1.23125L6.49033 3.03125L0 3.03125L0 4.03125L6.49033 4.03125L4.68155 5.83125L5.42634 6.53125L8.61831 3.53125Z" fill="white"/>
</g></symbol><symbol id="icon-basket" viewBox="0 0 24 23"><g fill="none">
<path d="M21.5871 15.3L23.0871 4.8C23.0871 4.7 23.0871 4.5 22.9871 4.4C22.8871 4.3 22.7871 4.3 22.5871 4.3H4.88711L4.18711 0.4C4.18711 0.2 3.98711 0 3.68711 0H1.28711C0.987109 0 0.787109 0.2 0.787109 0.5C0.787109 0.8 1.08711 1 1.28711 1H3.28711L5.78711 17.9C5.78711 18.1 5.98711 18.3 6.28711 18.3H20.9871C21.2871 18.3 21.4871 18.1 21.4871 17.8C21.4871 17.5 21.2871 17.3 20.9871 17.3H6.68711L6.38711 15.7H20.9871C21.2871 15.7 21.4871 15.6 21.5871 15.3ZM21.9871 5.3L20.6871 14.8H6.38711L4.98711 5.3H21.9871Z" fill="black"/>
<path d="M8.5875 18.7998C7.4875 18.7998 6.6875 19.6998 6.6875 20.6998C6.6875 21.7998 7.5875 22.6998 8.5875 22.6998C9.6875 22.6998 10.4875 21.7998 10.4875 20.7998C10.4875 19.6998 9.5875 18.7998 8.5875 18.7998ZM9.4875 20.6998C9.4875 21.1998 9.0875 21.6998 8.4875 21.6998C7.9875 21.6998 7.4875 21.2998 7.4875 20.6998C7.4875 20.0998 7.8875 19.6998 8.4875 19.6998C9.0875 19.6998 9.4875 20.1998 9.4875 20.6998Z" fill="black"/>
<path d="M18.3863 18.7998C17.2863 18.7998 16.4863 19.6998 16.4863 20.6998C16.4863 21.7998 17.3863 22.6998 18.3863 22.6998C19.3863 22.6998 20.2863 21.7998 20.2863 20.7998C20.2863 19.6998 19.3863 18.7998 18.3863 18.7998ZM18.3863 21.6998C17.8863 21.6998 17.3863 21.2998 17.3863 20.6998C17.3863 20.1998 17.7863 19.6998 18.3863 19.6998C18.8863 19.6998 19.3863 20.0998 19.3863 20.6998C19.3863 21.2998 18.8863 21.6998 18.3863 21.6998Z" fill="black"/>
</g></symbol><symbol id="icon-favourites" viewBox="0 0 22 19"><g fill="none">
<path d="M17.7398 0.423331C15.2398 -0.576669 12.5398 0.223331 10.8398 2.52333C9.03985 0.223331 6.43985 -0.576669 3.93985 0.523331C1.53985 1.52333 -0.760152 4.42333 0.239848 8.42333C0.939848 12.0233 3.73985 14.6233 6.03985 16.2233C8.43985 17.9233 10.5398 18.8233 10.7398 18.8233C10.7398 18.8233 10.8398 18.8233 10.9398 18.8233C11.0398 18.8233 11.1398 18.8233 11.1398 18.7233C11.4398 18.6233 13.4398 17.7233 15.7398 16.1233C17.9398 14.5233 20.7398 11.9233 21.5398 8.22333C22.4398 4.32333 20.1398 1.42333 17.7398 0.423331ZM17.2398 1.42333C19.3398 2.22333 21.1398 4.72333 20.3398 8.12333C19.0398 13.9233 11.7398 17.3233 10.7398 17.8233C9.53985 17.3233 2.43985 13.9233 1.13985 8.12333C0.439848 4.72333 2.23985 2.32333 4.33985 1.42333C4.93985 1.22333 5.43985 1.12333 6.03985 1.12333C8.03985 1.12333 9.53985 2.52333 10.3398 3.82333C10.4398 3.92333 10.6398 4.02333 10.7398 4.02333C10.9398 4.02333 11.0398 3.92333 11.1398 3.82333C12.3398 2.02333 14.5398 0.323331 17.2398 1.42333Z" fill="black"/>
</g></symbol><symbol id="icon-search" viewBox="0 0 21 21"><g fill="none">
<path d="M20.7 19.4998L17.4 16.1998C18.8 14.4998 19.5 12.2998 19.5 10.0998C19.5 4.6998 15.1 0.299805 9.7 0.299805C4.4 0.299805 0 4.6998 0 10.0998C0 15.4998 4.4 19.8998 9.8 19.8998C12.4 19.8998 14.9 18.8998 16.7 16.9998L19.9 20.1998C20 20.2998 20.1 20.3998 20.3 20.3998C20.5 20.3998 20.6 20.2998 20.7 20.1998C20.8 20.0998 20.9 19.9998 20.9 19.7998C20.9 19.6998 20.8 19.5998 20.7 19.4998ZM18.5 10.0998C18.5 14.8998 14.6 18.7998 9.8 18.7998C5 18.7998 1.1 14.8998 1.1 10.0998C1.1 5.2998 5 1.3998 9.8 1.3998C14.6 1.3998 18.5 5.2998 18.5 10.0998Z" fill="black"/>
</g></symbol><symbol id="icon-user" viewBox="0 0 23 21"><g fill="none">
<path d="M11.5098 14.2959C15.3098 14.2959 18.5098 11.1959 18.5098 7.2959C18.5098 3.3959 15.4098 0.295898 11.5098 0.295898C7.60977 0.295898 4.50977 3.3959 4.50977 7.2959C4.50977 11.1959 7.60977 14.2959 11.5098 14.2959ZM5.60977 7.3959C5.60977 4.1959 8.20977 1.4959 11.5098 1.4959C14.8098 1.4959 17.4098 4.0959 17.4098 7.3959C17.4098 10.6959 14.8098 13.2959 11.5098 13.2959C8.20977 13.2959 5.60977 10.5959 5.60977 7.3959Z" fill="black"/>
<path d="M21.8094 19.3959C18.8094 16.9959 15.2094 15.7959 11.4094 15.7959C7.60941 15.7959 4.10941 17.0959 1.10941 19.3959C0.909408 19.5959 0.809408 19.8959 1.00941 20.1959C1.20941 20.3959 1.50941 20.4959 1.80941 20.2959C4.60941 18.0959 7.90941 16.8959 11.5094 16.8959C15.1094 16.8959 18.4094 18.0959 21.2094 20.2959C21.3094 20.3959 21.4094 20.3959 21.5094 20.3959C21.7094 20.3959 21.8094 20.2959 21.9094 20.1959C22.1094 19.8959 22.1094 19.5959 21.8094 19.3959Z" fill="black"/>
</g></symbol></svg>