<svg width="1920" height="114" viewBox="0 0 1920 114" fill="none" xmlns="http://www.w3.org/2000/svg">
<path d="M0 29.5804C144.667 65.2074 221.593 56.2366 279.765 45.4716C293.16 43.1648 325.691 33.4251 379.654 20.8659C418.309 11.6388 450.84 5.23107 495.235 1.89905C548.815 -1.94558 575.988 0.361198 625.358 6C704.963 14.7145 739.79 26.2484 817.864 36.7571C860.346 42.3959 908.185 47.0094 961 48.291V108H0V29.5804Z" fill="white"/>
<path d="M1920 29.3884C1775.63 64.784 1698.87 55.8714 1640.82 45.1763C1627.45 42.8845 1594.99 33.208 1541.14 20.7304C1502.56 11.5632 1470.1 5.1971 1425.8 1.88672C1372.33 -1.93295 1345.21 0.358853 1295.94 5.96104C1216.5 14.619 1181.75 26.078 1103.84 36.5184C1061.44 42.1206 1013.7 46.7042 961 47.9774V114H1920V29.3884Z" fill="white"/>
</svg>
