<svg width="23" height="19" viewBox="0 0 23 19" fill="none" xmlns="http://www.w3.org/2000/svg">
<path d="M18.1891 0.423331C15.6891 -0.576669 12.9891 0.223331 11.2891 2.52333C9.48907 0.223331 6.88907 -0.576669 4.38907 0.523331C1.98907 1.52333 -0.310933 4.42333 0.689067 8.42333C1.38907 12.0233 4.18907 14.6233 6.48907 16.2233C8.88907 17.9233 10.9891 18.8233 11.1891 18.8233C11.1891 18.8233 11.2891 18.8233 11.3891 18.8233C11.4891 18.8233 11.5891 18.8233 11.5891 18.7233C11.8891 18.6233 13.8891 17.7233 16.1891 16.1233C18.3891 14.5233 21.1891 11.9233 21.9891 8.22333C22.8891 4.32333 20.5891 1.42333 18.1891 0.423331ZM17.6891 1.42333C19.7891 2.22333 21.5891 4.72333 20.7891 8.12333C19.4891 13.9233 12.1891 17.3233 11.1891 17.8233C9.98907 17.3233 2.88907 13.9233 1.58907 8.12333C0.889067 4.72333 2.68907 2.32333 4.78907 1.42333C5.38907 1.22333 5.88907 1.12333 6.48907 1.12333C8.48907 1.12333 9.98907 2.52333 10.7891 3.82333C10.8891 3.92333 11.0891 4.02333 11.1891 4.02333C11.3891 4.02333 11.4891 3.92333 11.5891 3.82333C12.7891 2.02333 14.9891 0.323331 17.6891 1.42333Z" fill="black"/>
</svg>
